<svg width="58" height="70" viewBox="0 0 58 70" fill="none" xmlns="http://www.w3.org/2000/svg">
<path d="M55.7226 31.0326L7.3207 1.42647C6.6067 0.988529 5.7887 0.74922 4.95124 0.733274C4.11379 0.717329 3.28727 0.925325 2.55711 1.33576C1.83085 1.7346 1.22583 2.32223 0.805994 3.03655C0.386154 3.75087 0.16709 4.56534 0.171954 5.39389V64.6062C0.16709 65.4348 0.386154 66.2493 0.805994 66.9636C1.22583 67.6779 1.83085 68.2655 2.55711 68.6644C3.28727 69.0748 4.11379 69.2828 4.95124 69.2669C5.7887 69.2509 6.6067 69.0116 7.3207 68.5737L55.7226 38.9675C56.4039 38.5534 56.9671 37.9709 57.3579 37.276C57.7487 36.5811 57.954 35.7973 57.954 35.0001C57.954 34.2028 57.7487 33.419 57.3579 32.7241C56.9671 32.0292 56.4039 31.4467 55.7226 31.0326ZM53.6196 35.5275L5.21102 65.1337C5.10652 65.1964 4.98691 65.2296 4.865 65.2296C4.74309 65.2296 4.62348 65.1964 4.51899 65.1337C4.41773 65.0843 4.33248 65.0073 4.27305 64.9117C4.21361 64.816 4.18242 64.7054 4.18305 64.5928V5.39389C4.18242 5.28125 4.21361 5.17072 4.27305 5.07503C4.33248 4.97934 4.41773 4.90239 4.51899 4.85303C4.62767 4.79243 4.75069 4.76226 4.87508 4.76569C4.99432 4.76995 5.11027 4.8059 5.21102 4.86983L53.6196 34.4726C53.7116 34.5266 53.7879 34.6036 53.8409 34.6961C53.8939 34.7887 53.9218 34.8934 53.9218 35.0001C53.9218 35.1067 53.8939 35.2115 53.8409 35.304C53.7879 35.3965 53.7116 35.4736 53.6196 35.5275Z" fill="white"/>
</svg>
