<svg width="1931" height="342" viewBox="0 0 1931 342" fill="none" xmlns="http://www.w3.org/2000/svg">
<g clip-path="url(#clip0_2001_44)">
<path fill-rule="evenodd" clip-rule="evenodd" d="M1927.8 259.8L1927.7 179.6L1923.2 178.8C1920.3 178.3 1916.3 176.9 1914.1 175.8C1912.2 175.6 1907.9 174.2 1907.9 174.2C1907.8 174.2 1907.6 174.1 1907.5 174.1C1905.8 173.7 1903.6 171.6 1901.7 168.8L1898.7 164.2L1890.7 164.5C1886.3 164.7 1880.9 165.1 1878.6 165.5C1874.7 166.2 1874.4 166 1871.1 161.7C1866.7 155.9 1865.2 155 1859.4 154.9C1853.8 154.7 1849 152 1841.7 144.7C1835.6 138.6 1830.8 135.3 1820.5 130C1816.1 127.7 1810.7 124.2 1808.5 122.2L1804.5 118.5L1802.3 123.3C1798 132.6 1794.9 136.4 1788.5 140C1786.2 141.3 1784.3 143.1 1784.3 144C1784.3 144.9 1783.2 146.7 1781.9 147.9C1779.8 149.9 1778.8 150.1 1774.9 149.5C1771.4 149 1770.3 148.4 1770.3 147C1770.3 145 1766.7 142.2 1761.8 140.3L1761.5 140.2C1761.3 140.1 1761.2 140.1 1761 140C1758.9 139.2 1755.9 138.8 1755.1 138.7C1755 138.7 1754.9 138.7 1754.9 138.7C1754.4 138.7 1753.7 138.6 1753 138.5C1750.3 138.3 1745.4 136.8 1742.2 135.4C1737.7 133.4 1734.5 132.7 1729.4 132.6C1723.1 132.5 1722.3 132.8 1719.5 135.5C1719.4 135.6 1719.4 135.6 1719.3 135.7C1719.3 135.7 1718.3 137.2 1716.1 141.8C1716 141.9 1716 142.1 1715.9 142.2C1715.7 142.5 1715.5 142.9 1715.2 143.2C1715.2 143.2 1715.2 143.2 1715.1 143.3C1713.9 144.8 1712.1 146 1711.1 145.6C1708.8 144.7 1703 147.7 1702.9 149.9C1702.8 151.4 1703.2 151.7 1704.6 151.4C1705.9 151.1 1706.3 151.3 1705.8 152.4C1705.5 153.2 1705.7 154.2 1706.3 154.6C1706.9 155 1707.4 155.8 1707.4 156.5C1707.4 158 1704.3 161.4 1702.6 162C1702.5 162 1702.5 162 1702.4 162.1C1701 162.6 1698.1 163 1698.1 163C1697.3 163.5 1695.9 164.3 1694.3 165.1C1691.9 166.3 1690.1 167.6 1688.9 169.1C1688.5 169.5 1688.2 170 1687.9 170.5L1687.8 170.6C1686.8 172.2 1686.4 174.1 1686.4 176.3C1686.4 177 1686 177.9 1685.3 178.5C1684.9 178.9 1682.2 181.9 1682 182.1C1681.8 183 1681.4 184.8 1680.7 186.7C1679.8 189.4 1678 192.9 1676.7 194.4C1675.4 195.9 1674.4 197.8 1674.4 198.5C1674.4 199.9 1672.4 204.9 1671.4 206.4C1670.5 208.1 1669.3 210.2 1668.8 211C1668.7 211.1 1668.7 211.2 1668.7 211.3C1668.7 211.4 1668.6 211.4 1668.6 211.5C1668.5 211.7 1668.4 211.9 1668.3 212.1C1668.2 212.3 1668 212.6 1667.9 212.9C1666.5 215.5 1664.1 220.2 1663.9 220.6C1663.5 221.6 1662.7 223.1 1661.8 224.6C1659.3 228.7 1657.6 230 1649.8 233.9C1644.8 236.4 1639.1 239.6 1637.2 241.1C1635.3 242.6 1633.2 243.9 1632.6 243.9C1632 243.9 1631.2 244.5 1630.8 245.1C1629.7 246.8 1620.9 253.8 1619.9 253.8C1619.5 253.8 1617.5 255.7 1615.5 258L1611.9 262.2L1602 260.5C1596.5 259.6 1589.3 258.6 1585.9 258.4C1581.1 258.1 1578.9 257.4 1575.9 255.1C1573.8 253.5 1571.5 251.8 1570.7 251.3C1569.9 250.8 1566 247 1561.9 243.1C1557.8 239.1 1554.1 235.9 1553.6 235.9C1553.1 235.9 1551.2 237.8 1549.3 240.1C1545.9 244.2 1545.7 244.3 1542.2 243.2C1539.8 242.5 1538.4 242.4 1538 243.1C1537.7 243.6 1536.1 243.9 1534.5 243.7C1532.9 243.5 1531.6 243.6 1531.6 244.1C1531.6 244.6 1530.1 244.9 1528.2 244.9C1525.9 244.9 1523.9 244 1522 242.2C1517.8 238.2 1511.7 235.6 1510 237C1508.5 238.2 1505.7 236.9 1502.1 233.2C1500.1 231.2 1498.1 230 1492.1 227.1C1488.8 225.5 1487.7 224.2 1485.9 219.8L1484.5 216.5L1484.4 216.2L1484.2 215.8C1483.2 213.9 1479.4 213.4 1479.4 213.4C1477.2 213.2 1474.8 212.5 1473.8 211.4L1473.7 211.3C1472.7 210.8 1470.4 208.7 1470.4 208.7C1469.1 208.3 1466.3 206.4 1463.1 203.5C1461.5 202.1 1459.8 200.9 1459.4 200.9C1459 200.9 1457.8 199.4 1456.7 197.6C1455.6 195.8 1453.5 193 1452.1 191.5C1450.7 190 1449.6 188.4 1449.6 187.9C1449.6 187.1 1443.3 183.6 1424.5 173.7C1419.8 171.2 1417.5 170.7 1410.5 170.5C1405.9 170.3 1401.3 170.6 1400.3 171.2C1398.9 171.9 1397.9 171.6 1396 169.9C1393.4 167.5 1389.1 164.7 1381.4 160.6C1378.8 159.2 1376.6 157.5 1376.3 156.9C1376.1 156.3 1374.3 155.6 1372.2 155.4C1370.2 155.2 1367.2 154.4 1365.6 153.6C1364 152.8 1361 152.1 1359.1 152.1C1356.5 152.1 1355 151.4 1353.3 149.5C1352.1 148 1350.5 146.4 1349.7 145.7C1341.1 138.6 1339 135 1330.5 113.4C1330 112.2 1327.9 110.1 1325.8 108.8C1323.7 107.5 1321.4 105.7 1320.6 104.8C1319.8 103.9 1318.7 103.2 1318 103.2C1317.3 103.2 1315.7 102.4 1314.5 101.4C1312.3 99.5999 1312.3 99.2999 1313.5 94.8999C1314.6 90.9999 1314.6 89.4999 1313.5 86.2999C1312.8 84.0999 1311.8 82.2999 1311.4 82.2999C1308.3 82.2999 1300.5 88.0999 1300.5 90.3999C1300.5 91.8999 1295 97.0999 1292.6 97.7999C1291.3 98.1999 1288.7 99.9999 1286.8 101.9C1281.9 106.8 1267 113.6 1262.7 112.8C1260.8 112.4 1259.5 112.6 1259.5 113.2C1259.5 114.8 1254 117.3 1249.2 117.8C1233.2 119.7 1211.1 119.6 1207.4 117.7C1205.9 116.9 1203.9 116.2 1203.1 116.2C1202.3 116.2 1199.9 115.1 1197.9 113.7C1195.9 112.3 1193 111.2 1191.4 111.2C1186 111.2 1180.1 107.6 1172.4 99.5999C1168.3 95.2999 1162.4 89.3999 1159.4 86.5999C1151.9 79.6999 1145.5 72.5999 1141.9 67.1999C1140.3 64.7999 1137.9 61.6999 1136.7 60.2999C1135.5 58.9999 1134.4 57.3999 1134.4 56.7999C1134.3 55.1999 1129.9 51.9999 1121.2 47.2999C1114.4 43.6999 1112.7 43.0999 1107.9 43.2999C1104.9 43.3999 1102.1 43.8999 1101.8 44.3999C1101 45.6999 1092.7 49.0999 1090.3 49.0999C1089.2 49.0999 1087.3 50.0999 1086.1 51.1999C1084.1 53.0999 1078.8 55.8999 1076.2 56.5999C1074.9 57.3999 1072.7 57.6999 1072.5 57.7999C1071.7 58.0999 1069.9 59.1999 1068.6 60.1999C1065.1 62.8999 1062.7 62.4999 1060.4 58.6999C1059.3 56.8999 1056.3 53.8999 1053.7 51.9999C1051.1 50.1999 1046.7 46.3999 1043.9 43.5999C1041.1 40.7999 1036.9 36.6999 1034.4 34.3999C1031.9 32.0999 1029.5 29.4999 1028.9 28.5999C1028.1 27.1999 1027.4 27.0999 1024.8 28.1999C1021.1 29.5999 1018.4 28.7999 1018.4 26.2999C1018.4 25.2999 1017 22.7999 1015.3 20.7999C1014.4 19.6999 1013.7 18.6999 1013.3 17.9999V17.8999C1012.1 15.9999 1010.7 15.1999 1010.7 15.1999C1009.2 14.3999 1006.8 12.8999 1005.2 11.4999C1001.8 8.69992 995.8 7.39992 993.3 8.99992C990.3 10.8999 988 10.3999 979.7 5.99992C971.1 1.49992 966.6 0.799923 965 3.69992C964.4 4.69992 963.2 6.29992 962.2 7.29992C961.2 8.29992 960.4 9.79992 960.4 10.5999C960.4 11.3999 959.9 12.0999 959.4 12.0999C958.9 12.0999 958.4 12.7999 958.4 13.5999C958.4 14.3999 957.6 15.0999 956.5 15.0999C954.6 15.0999 953.4 18.3999 951.9 28.0999C951.5 30.5999 950.8 32.9999 950.4 33.5999C950 34.1999 949.1 38.1999 948.5 42.5999C947.4 50.5999 943.9 59.4999 942.3 58.4999C941.8 58.1999 941.4 58.4999 941.4 59.0999C941.4 59.6999 940.4 61.8999 939.1 63.8999C937.8 65.8999 935.3 70.9999 933.5 75.0999C932.4 77.6999 931.6 79.2999 931.2 79.9999L929.9 85.0999C929.8 85.6999 929.6 86.3999 929.3 87.1999C926.4 95.9999 925.4 96.8999 922 93.1999C919.4 90.2999 915.9 92.0999 909.4 99.7999C895 116.9 892.2 119.7 890.3 117.6C890.3 117.6 888.4 116.3 887.3 115.8C887.2 115.8 887.1 115.7 887 115.7C886.5 115.4 885.9 115 885.4 114.5C883.3 112.6 879.2 113.9 877.2 117C876.5 118.1 875.5 119 875 119C874.5 119 872.6 120.5 870.8 122.4C866.6 126.7 859.9 128.1 849.3 126.7C840.1 125.6 828.3 125.4 822.3 126.4C818.8 127 817.4 126.8 816.3 125.7C813.6 123 806.9 119.2 803.4 118.4C801.5 118 797.6 117.6 794.7 117.5C789.5 117.4 789.4 117.3 779.3 107.9C770.8 99.9999 768.6 98.3999 765.9 98.3999C763.6 98.3999 762.5 98.8999 762.2 100.1C761.8 101.5 761 101.7 757.6 101.3C754.7 101 751.9 100.3 750.3 99.4999C749.2 99.0999 748.2 98.6999 747.4 98.3999C746.2 97.9999 745 97.6999 743.8 97.7999C739 97.8999 730.8 97.3999 729.8 96.5999C729.1 96.0999 728.6 94.7999 728.6 93.6999C728.6 92.6999 728.1 91.7999 727.4 91.7999C726.7 91.7999 726.5 91.4999 726.8 91.1999C727.5 90.4999 721.2 84.7999 719.7 84.7999C719.1 84.7999 717.4 83.3999 715.9 81.6999C713.4 78.8999 712.7 78.6999 707.5 78.8999C702.8 79.1999 701.5 78.8999 700 77.0999C699 75.8999 696.1 74.3999 693.6 73.5999C691.1 72.8999 687.3 71.2999 685.1 70.0999C682.9 68.8999 678.5 67.5999 675.3 67.1999C672.1 66.7999 669.3 66.0999 669 65.5999C668.7 65.0999 667.6 65.1999 666.5 65.7999C665.4 66.3999 664.6 66.4999 664.6 66.1999C664.6 65.7999 663.9 66.0999 663.1 66.7999C661.9 67.7999 661 67.7999 658.8 66.8999C656.8 65.9999 655.2 65.9999 653.2 66.7999C650.4 67.8999 636.4 67.3999 629.6 65.8999C627.7 65.4999 624.7 65.4999 622.9 65.7999C620.4 66.2999 619.3 65.9999 618 64.5999L617.7 64.2999C616.8 63.3999 615.5 62.6999 614.2 62.5999C613.4 62.4999 612.6 62.4999 612.1 62.4999C611.8 62.4999 611.6 62.4999 611.6 62.4999H610.9C608 62.5999 605.4 62.1999 605 61.5999C604.6 60.9999 602.7 60.6999 600.7 60.8999C597.1 61.2999 592.6 59.9999 592.6 58.5999C592.6 58.3999 592.3 58.0999 591.9 57.7999C591.6 57.5999 591.3 57.4999 590.9 57.3999C590.8 57.3999 590.7 57.2999 590.6 57.2999C590.5 57.2999 590.3 57.1999 590.3 57.1999C588.2 56.5999 585.4 56.2999 583.7 56.0999C583.6 56.0999 583.5 56.0999 583.4 56.0999C583.2 56.0999 583.1 56.0999 582.9 55.9999C582.8 55.9999 582.7 55.9999 582.7 55.9999C582.6 55.9999 582.5 55.9999 582.4 55.9999C582.3 55.9999 582.2 55.9999 582.2 55.9999C579.8 55.6999 577.5 55.1999 576.6 54.7999C570.6 51.5999 547.5 53.6999 543.1 57.8999C541.9 59.0999 540.3 59.6999 539.4 59.2999C538.2 58.7999 537.7 59.5999 537.2 62.9999C536.1 70.5999 535.8 72.1999 534.9 76.4999C534.4 78.7999 534.2 82.8999 534.5 85.5999C535 90.1999 534.8 90.5999 531.2 93.5999C529.1 95.2999 526.4 96.9999 525 97.2999C521 98.2999 512.7 104.2 512.7 106.1C512.7 108.8 512.5 109.2 511.1 111.3C510.3 112.4 509.7 114.1 509.7 115.1C509.7 117.2 506.4 124 503.4 128C501.9 130 500.2 130.9 496.8 131.4C491.5 132.2 489 134 487.1 138.4C485.5 142.2 483.2 142.7 472.6 142C465.3 141.5 464.7 141.6 461.6 144.1C459.9 145.6 457.1 147.4 455.6 148.2C451.9 150.1 437.4 150.4 432.6 148.7C427.6 146.9 426.2 147.7 424.8 153.3C424.1 156 423.2 159.5 422.7 161.1C422.2 162.8 421.5 168.1 421.1 173.1C420.7 178 420.1 182.6 419.6 183.1C419.2 183.7 418.1 189.7 417.1 196.6C415.9 205.5 414.8 209.9 413.4 212C411.6 214.5 411.5 215.3 412.6 218.2C413.3 220 413.5 222.1 413.1 222.7C412.7 223.3 412 226.8 411.6 230.5C410.6 239.7 408.7 246.6 406.6 249.6C404.8 252.1 402.7 253.2 392.4 257.2C389.8 258.2 387.6 259.5 387.6 260C387.6 260.5 385.5 262.3 383 263.9C379.1 266.4 377.8 266.7 373.9 266.2C371 265.8 368.2 266.1 366 267C363 268.2 344.9 268.6 338.2 267.9H338.1C336.6 267.9 332.6 266.6 332.6 266.6C331.9 266.5 331.3 266.1 331 265.7C330.7 265.2 329.2 264.7 327.6 264.7C322.9 264.7 314.5 257.1 314.4 252.7C314.4 251.9 313.1 249.7 311.6 247.8C307.5 242.8 303.6 243.8 297.1 251.5C292.5 256.9 287.6 260.1 274.7 266C273.4 266.6 272.6 267.6 272.9 268.3C273.5 269.9 271.2 278.6 269.4 281.5C269.2 281.8 269 282.2 268.8 282.4C268.8 282.5 268.7 282.6 268.6 282.7C268.5 282.9 268.4 283 268.3 283.1L268.2 283.2C267.6 284 266.7 285 266.2 285.6C266.1 285.7 266 285.8 265.9 286C263.6 288.3 255.3 293.1 249.9 294.8C246.2 296 242 297.7 240.6 298.7C237.3 301 236.2 301.2 228.6 300.2C221.6 299.3 200.7 299.2 199.8 300.1C199.5 300.4 198.4 300.6 197.4 300.6C196.4 300.6 192.6 301.9 189.1 303.6C185.6 305.2 182 306.6 181.2 306.6C180.4 306.6 178.5 307.7 177 309.1C173.8 312 173.6 312.1 171 310.1C167.3 307.3 161 308.9 157 313.4L155 315.8L150 313.3C138.7 307.6 137.9 307.3 135.6 308.5C134.4 309.1 133 309.4 132.5 309C132 308.7 129.5 309.8 127.1 311.5C124.7 313.2 122.2 314.5 121.6 314.5C121 314.5 120.5 314.9 120.5 315.4C120.5 316.2 118.7 317.3 108.2 322.6C104.8 324.4 104.2 324.4 101.5 323C99.9 322.2 98.3 321 97.9 320.5C97.6 319.9 96.5 319.5 95.5 319.5C94.5 319.5 91.4 316.9 88.7 313.7C78.7 303.1 74.6 299 73.2 299C72.5 299 70.3 298 68.4 296.8C66.5 295.6 62.7999 294.5 60.2999 294.4C57.7999 294.2 53.8999 293.7 51.7999 293.1C49.3999 292.5 47 292.5 45.5 293C44.2 293.5 39.7 293.9 35.7 293.9C30.1 293.9 27.5 293.4 25 291.9C23.2 290.8 20.8 289.9 19.7 289.9C18.6 289.9 14.5 288.3 10.7 286.4C6.79995 284.6 2.99995 283 2.19995 283C0.899951 283 0.699951 286.8 0.699951 311.2L0.799951 339.4L1928 339.9L1927.8 259.8ZM1929.8 186.3C1929.5 186 1929.2 186.6 1929.3 187.6C1929.4 188.8 1929.6 189 1929.9 188.2C1930.2 187.5 1930.1 186.7 1929.8 186.3ZM1929.8 205.3C1929.5 205 1929.2 205.6 1929.3 206.6C1929.4 207.8 1929.6 208 1929.9 207.2C1930.2 206.5 1930.1 205.7 1929.8 205.3ZM1929.9 224.3C1929.7 223.3 1929.5 224.4 1929.5 226.6C1929.5 228.8 1929.7 229.6 1930 228.3C1930.3 227 1930.1 225.2 1929.9 224.3ZM1929.9 250.8C1929.7 249.6 1929.5 250.8 1929.5 253.6C1929.5 256.4 1929.7 257.4 1929.9 255.8C1930.1 254.2 1930.1 252 1929.9 250.8ZM1929.8 275.8C1929.5 275.1 1929.3 275.7 1929.3 277C1929.3 278.3 1929.5 278.9 1929.8 278.2C1930.1 277.6 1930.1 276.4 1929.8 275.8ZM1929.8 285.3C1929.5 285 1929.2 285.6 1929.3 286.6C1929.4 287.8 1929.6 288 1929.9 287.2C1930.2 286.5 1930.1 285.6 1929.8 285.3ZM1929.8 290.3C1929.5 290 1929.2 290.6 1929.3 291.6C1929.4 292.8 1929.6 293 1929.9 292.2C1930.2 291.5 1930.1 290.6 1929.8 290.3ZM1929.8 294.3C1929.5 294 1929.2 294.6 1929.3 295.6C1929.4 296.8 1929.6 297 1929.9 296.2C1930.2 295.5 1930.1 294.6 1929.8 294.3ZM1929.8 302.7C1929.5 302 1929.3 302.6 1929.3 303.9C1929.3 305.2 1929.5 305.8 1929.8 305.1C1930.1 304.5 1930.1 303.4 1929.8 302.7ZM1929.9 313.2C1929.7 312.2 1929.5 313.3 1929.5 315.5C1929.5 317.7 1929.7 318.5 1930 317.2C1930.3 315.9 1930.1 314.2 1929.9 313.2ZM1929.9 333.7C1929.7 332.5 1929.5 333.7 1929.5 336.5C1929.5 339.3 1929.7 340.3 1929.9 338.7C1930.1 337.2 1930.1 334.9 1929.9 333.7Z" fill="#FDFEFF"/>
</g>
<defs>
<clipPath id="clip0_2001_44">
<rect width="1931" height="342" fill="white"/>
</clipPath>
</defs>
</svg>
